<svg width="166" height="147" viewBox="0 0 166 147" fill="none" xmlns="http://www.w3.org/2000/svg">
<path d="M77.3071 65.2423C78.4741 67.745 77.3914 70.7199 74.8887 71.8869C72.386 73.0539 69.4111 71.9712 68.244 69.4685L47.1131 24.1531C45.9461 21.6504 47.0289 18.6755 49.5316 17.5084C52.0343 16.3414 55.0092 17.4242 56.1762 19.9269L77.3071 65.2423Z" fill="#50D890"/>
<path d="M76.5603 63.1256C78.6757 64.9006 78.9516 68.0544 77.1766 70.1698C75.4016 72.2851 72.2478 72.5611 70.1324 70.7861L31.8302 38.6467C29.7148 36.8717 29.4389 33.7179 31.2139 31.6025C32.9889 29.4871 36.1427 29.2112 38.2581 30.9862L76.5603 63.1256Z" fill="#50D890"/>
<path d="M74.7141 60.0466C77.3814 60.7614 78.9644 63.503 78.2496 66.1704C77.5349 68.8377 74.7933 70.4206 72.1259 69.7059L23.8296 56.765C21.1623 56.0502 19.5794 53.3086 20.2941 50.6412C21.0088 47.9739 23.7505 46.391 26.4178 47.1057L74.7141 60.0466Z" fill="#50D890"/>
<path d="M79.2079 69C79.2079 71.7614 76.9693 74 74.2079 74C71.4465 74 69.2079 71.7614 69.2079 69L69.2079 19C69.2079 16.2386 71.4465 14 74.2079 14C76.9693 14 79.2079 16.2386 79.2079 19L79.2079 69Z" fill="#4F98CA"/>
<rect x="19" y="74.034" width="10" height="60" rx="5" transform="rotate(-90 19 74.034)" fill="#4F98CA"/>
<path d="M99.1482 72.9505C96.6455 74.1176 93.6706 73.0348 92.5036 70.5321C91.3366 68.0294 92.4194 65.0545 94.9221 63.8875L140.237 42.7565C142.74 41.5895 145.715 42.6723 146.882 45.175C148.049 47.6777 146.966 50.6526 144.464 51.8196L99.1482 72.9505Z" fill="#50D890"/>
<path d="M101.265 72.2037C99.4899 74.3191 96.3361 74.595 94.2208 72.82C92.1054 71.045 91.8295 67.8912 93.6045 65.7759L125.744 27.4736C127.519 25.3583 130.673 25.0824 132.788 26.8574C134.903 28.6324 135.179 31.7861 133.404 33.9015L101.265 72.2037Z" fill="#50D890"/>
<path d="M104.344 70.3575C103.629 73.0249 100.887 74.6078 98.2202 73.8931C95.5528 73.1784 93.9699 70.4367 94.6846 67.7693L107.626 19.4731C108.34 16.8057 111.082 15.2228 113.749 15.9375C116.417 16.6522 118 19.3939 117.285 22.0612L104.344 70.3575Z" fill="#50D890"/>
<path d="M95.3905 74.8513C92.6291 74.8513 90.3905 72.6127 90.3905 69.8513C90.3905 67.0899 92.6291 64.8513 95.3905 64.8513L145.391 64.8513C148.152 64.8513 150.391 67.0899 150.391 69.8513C150.391 72.6127 148.152 74.8513 145.391 74.8513L95.3905 74.8513Z" fill="#4F98CA"/>
<rect x="90.3566" y="14.6434" width="10" height="60" rx="5" fill="#4F98CA"/>
<path d="M71.4725 96.5397V91.0677H66.0005V93.4617H68.7905V95.2617C68.0825 95.7657 67.2125 96.0177 66.1805 96.0177C65.6165 96.0177 65.1005 95.9217 64.6325 95.7297C64.1765 95.5257 63.7745 95.2437 63.4265 94.8837C63.0905 94.5237 62.8265 94.1037 62.6345 93.6237C62.4545 93.1317 62.3645 92.5977 62.3645 92.0217V91.9857C62.3645 91.4457 62.4545 90.9417 62.6345 90.4737C62.8265 89.9937 63.0845 89.5797 63.4085 89.2317C63.7445 88.8717 64.1285 88.5897 64.5605 88.3857C65.0045 88.1697 65.4785 88.0617 65.9825 88.0617C66.3425 88.0617 66.6725 88.0917 66.9725 88.1517C67.2725 88.2117 67.5485 88.2957 67.8005 88.4037C68.0645 88.5117 68.3165 88.6437 68.5565 88.7997C68.7965 88.9557 69.0365 89.1357 69.2765 89.3397L71.0225 87.2337C70.6985 86.9577 70.3625 86.7117 70.0145 86.4957C69.6665 86.2797 69.2945 86.0997 68.8985 85.9557C68.5025 85.8117 68.0705 85.7037 67.6025 85.6317C67.1465 85.5477 66.6365 85.5057 66.0725 85.5057C65.1125 85.5057 64.2305 85.6797 63.4265 86.0277C62.6225 86.3637 61.9265 86.8317 61.3385 87.4317C60.7505 88.0197 60.2885 88.7097 59.9525 89.5017C59.6285 90.2817 59.4665 91.1217 59.4665 92.0217V92.0577C59.4665 92.9937 59.6285 93.8577 59.9525 94.6497C60.2765 95.4417 60.7265 96.1257 61.3025 96.7017C61.8905 97.2777 62.5865 97.7277 63.3905 98.0517C64.2065 98.3757 65.1065 98.5377 66.0905 98.5377C67.2425 98.5377 68.2625 98.3457 69.1505 97.9617C70.0505 97.5657 70.8245 97.0917 71.4725 96.5397ZM78.7657 91.3557V88.4937C77.9497 88.4577 77.3017 88.6377 76.8217 89.0337C76.3417 89.4297 75.9637 89.9577 75.6877 90.6177V88.6737H72.9517V98.3217H75.6877V94.7577C75.6877 93.5937 75.9457 92.7357 76.4617 92.1837C76.9897 91.6317 77.7097 91.3557 78.6217 91.3557H78.7657ZM88.5751 93.7677V93.7317C88.5751 93.0477 88.4791 92.3937 88.2871 91.7697C88.1071 91.1337 87.8191 90.5757 87.4231 90.0957C87.0391 89.6037 86.5531 89.2137 85.9651 88.9257C85.3771 88.6377 84.6811 88.4937 83.8771 88.4937C83.1691 88.4937 82.5211 88.6257 81.9331 88.8897C81.3571 89.1537 80.8591 89.5137 80.4391 89.9697C80.0191 90.4257 79.6891 90.9597 79.4491 91.5717C79.2211 92.1837 79.1071 92.8317 79.1071 93.5157V93.5517C79.1071 94.2957 79.2331 94.9737 79.4851 95.5857C79.7371 96.1857 80.0851 96.7077 80.5291 97.1517C80.9851 97.5957 81.5191 97.9377 82.1311 98.1777C82.7551 98.4177 83.4271 98.5377 84.1471 98.5377C85.0231 98.5377 85.7851 98.3817 86.4331 98.0697C87.0811 97.7457 87.6331 97.3017 88.0891 96.7377L86.5231 95.3517C86.1391 95.6997 85.7671 95.9517 85.4071 96.1077C85.0471 96.2637 84.6391 96.3417 84.1831 96.3417C83.5711 96.3417 83.0551 96.1857 82.6351 95.8737C82.2271 95.5497 81.9571 95.0757 81.8251 94.4517H88.5391C88.5511 94.3197 88.5571 94.2057 88.5571 94.1097C88.5691 94.0137 88.5751 93.8997 88.5751 93.7677ZM85.9111 92.7417H81.7891C81.8971 92.1177 82.1251 91.6197 82.4731 91.2477C82.8331 90.8757 83.3011 90.6897 83.8771 90.6897C84.4531 90.6897 84.9151 90.8817 85.2631 91.2657C85.6111 91.6377 85.8271 92.1297 85.9111 92.7417ZM98.7142 93.7677V93.7317C98.7142 93.0477 98.6182 92.3937 98.4262 91.7697C98.2462 91.1337 97.9582 90.5757 97.5622 90.0957C97.1782 89.6037 96.6922 89.2137 96.1042 88.9257C95.5162 88.6377 94.8202 88.4937 94.0162 88.4937C93.3082 88.4937 92.6602 88.6257 92.0722 88.8897C91.4962 89.1537 90.9982 89.5137 90.5782 89.9697C90.1582 90.4257 89.8282 90.9597 89.5882 91.5717C89.3602 92.1837 89.2462 92.8317 89.2462 93.5157V93.5517C89.2462 94.2957 89.3722 94.9737 89.6242 95.5857C89.8762 96.1857 90.2242 96.7077 90.6682 97.1517C91.1242 97.5957 91.6582 97.9377 92.2702 98.1777C92.8942 98.4177 93.5662 98.5377 94.2862 98.5377C95.1622 98.5377 95.9242 98.3817 96.5722 98.0697C97.2202 97.7457 97.7722 97.3017 98.2282 96.7377L96.6622 95.3517C96.2782 95.6997 95.9062 95.9517 95.5462 96.1077C95.1862 96.2637 94.7782 96.3417 94.3222 96.3417C93.7102 96.3417 93.1942 96.1857 92.7742 95.8737C92.3662 95.5497 92.0962 95.0757 91.9642 94.4517H98.6782C98.6902 94.3197 98.6962 94.2057 98.6962 94.1097C98.7082 94.0137 98.7142 93.8997 98.7142 93.7677ZM96.0502 92.7417H91.9282C92.0362 92.1177 92.2642 91.6197 92.6122 91.2477C92.9722 90.8757 93.4402 90.6897 94.0162 90.6897C94.5922 90.6897 95.0542 90.8817 95.4022 91.2657C95.7502 91.6377 95.9662 92.1297 96.0502 92.7417ZM108.691 98.3217V92.0757C108.691 90.9597 108.403 90.0837 107.827 89.4477C107.263 88.8117 106.459 88.4937 105.415 88.4937C105.067 88.4937 104.755 88.5357 104.479 88.6197C104.203 88.7037 103.951 88.8177 103.723 88.9617C103.495 89.1057 103.285 89.2737 103.093 89.4657C102.913 89.6457 102.745 89.8377 102.589 90.0417V88.6737H99.8533V98.3217H102.589V92.9397C102.589 92.2917 102.739 91.8057 103.039 91.4817C103.351 91.1457 103.771 90.9777 104.299 90.9777C104.827 90.9777 105.235 91.1457 105.523 91.4817C105.811 91.8057 105.955 92.2917 105.955 92.9397V98.3217H108.691ZM46.0981 111.596V111.56C46.0981 111.008 46.0081 110.534 45.8281 110.138C45.6601 109.742 45.4021 109.4 45.0541 109.112C44.7181 108.812 44.2981 108.56 43.7941 108.356C43.3021 108.14 42.7381 107.948 42.1021 107.78C41.5621 107.636 41.1121 107.51 40.7521 107.402C40.4041 107.294 40.1281 107.18 39.9241 107.06C39.7201 106.94 39.5761 106.808 39.4921 106.664C39.4201 106.508 39.3841 106.328 39.3841 106.124V106.088C39.3841 105.776 39.5161 105.518 39.7801 105.314C40.0561 105.098 40.4641 104.99 41.0041 104.99C41.5441 104.99 42.0841 105.104 42.6241 105.332C43.1641 105.548 43.7161 105.848 44.2801 106.232L45.7201 104.144C45.0721 103.628 44.3581 103.232 43.5781 102.956C42.8101 102.68 41.9641 102.542 41.0401 102.542C40.3921 102.542 39.7981 102.632 39.2581 102.812C38.7181 102.992 38.2501 103.25 37.8541 103.586C37.4701 103.922 37.1701 104.324 36.9541 104.792C36.7381 105.248 36.6301 105.764 36.6301 106.34V106.376C36.6301 107 36.7261 107.522 36.9181 107.942C37.1221 108.362 37.4041 108.716 37.7641 109.004C38.1241 109.28 38.5621 109.514 39.0781 109.706C39.5941 109.898 40.1701 110.072 40.8061 110.228C41.3341 110.36 41.7601 110.486 42.0841 110.606C42.4201 110.726 42.6781 110.846 42.8581 110.966C43.0501 111.086 43.1761 111.218 43.2361 111.362C43.3081 111.494 43.3441 111.65 43.3441 111.83V111.866C43.3441 112.238 43.1821 112.532 42.8581 112.748C42.5461 112.952 42.1021 113.054 41.5261 113.054C40.8061 113.054 40.1401 112.916 39.5281 112.64C38.9281 112.364 38.3401 111.992 37.7641 111.524L36.1261 113.486C36.8821 114.17 37.7221 114.68 38.6461 115.016C39.5701 115.34 40.5121 115.502 41.4721 115.502C42.1561 115.502 42.7801 115.418 43.3441 115.25C43.9081 115.07 44.3941 114.818 44.8021 114.494C45.2101 114.158 45.5281 113.75 45.7561 113.27C45.9841 112.778 46.0981 112.22 46.0981 111.596ZM55.8118 113.774L54.2098 112.154C53.8738 112.466 53.5318 112.718 53.1838 112.91C52.8478 113.09 52.4518 113.18 51.9958 113.18C51.6238 113.18 51.2878 113.114 50.9878 112.982C50.6878 112.838 50.4298 112.646 50.2138 112.406C49.9978 112.166 49.8298 111.884 49.7098 111.56C49.6018 111.236 49.5478 110.888 49.5478 110.516V110.48C49.5478 110.12 49.6018 109.784 49.7098 109.472C49.8298 109.148 49.9918 108.866 50.1958 108.626C50.4118 108.386 50.6578 108.2 50.9338 108.068C51.2218 107.924 51.5398 107.852 51.8878 107.852C52.3798 107.852 52.7878 107.948 53.1118 108.14C53.4478 108.332 53.7718 108.59 54.0838 108.914L55.7578 107.114C55.3018 106.61 54.7738 106.214 54.1738 105.926C53.5738 105.638 52.8178 105.494 51.9058 105.494C51.1618 105.494 50.4778 105.626 49.8538 105.89C49.2418 106.154 48.7138 106.514 48.2698 106.97C47.8258 107.426 47.4778 107.96 47.2258 108.572C46.9738 109.184 46.8478 109.832 46.8478 110.516V110.552C46.8478 111.236 46.9738 111.884 47.2258 112.496C47.4778 113.096 47.8258 113.624 48.2698 114.08C48.7138 114.524 49.2418 114.878 49.8538 115.142C50.4778 115.406 51.1498 115.538 51.8698 115.538C52.8298 115.538 53.6098 115.376 54.2098 115.052C54.8098 114.716 55.3438 114.29 55.8118 113.774ZM65.537 115.322V109.076C65.537 107.96 65.249 107.084 64.673 106.448C64.109 105.812 63.305 105.494 62.261 105.494C61.913 105.494 61.601 105.536 61.325 105.62C61.049 105.704 60.797 105.818 60.569 105.962C60.341 106.106 60.131 106.274 59.939 106.466C59.759 106.646 59.591 106.838 59.435 107.042V102.182H56.699V115.322H59.435V109.94C59.435 109.292 59.585 108.806 59.885 108.482C60.197 108.146 60.617 107.978 61.145 107.978C61.673 107.978 62.081 108.146 62.369 108.482C62.657 108.806 62.801 109.292 62.801 109.94V115.322H65.537ZM76.9858 110.516V110.48C76.9858 109.784 76.8538 109.136 76.5898 108.536C76.3258 107.924 75.9598 107.396 75.4918 106.952C75.0358 106.496 74.4898 106.142 73.8538 105.89C73.2178 105.626 72.5278 105.494 71.7838 105.494C71.0278 105.494 70.3318 105.626 69.6958 105.89C69.0598 106.154 68.5078 106.514 68.0398 106.97C67.5718 107.426 67.2058 107.96 66.9418 108.572C66.6778 109.172 66.5458 109.82 66.5458 110.516V110.552C66.5458 111.248 66.6778 111.902 66.9418 112.514C67.2058 113.114 67.5658 113.642 68.0218 114.098C68.4898 114.542 69.0418 114.896 69.6778 115.16C70.3138 115.412 71.0038 115.538 71.7478 115.538C72.5038 115.538 73.1998 115.406 73.8358 115.142C74.4718 114.878 75.0238 114.518 75.4918 114.062C75.9598 113.606 76.3258 113.078 76.5898 112.478C76.8538 111.866 76.9858 111.212 76.9858 110.516ZM74.2858 110.552C74.2858 110.912 74.2258 111.254 74.1058 111.578C73.9978 111.89 73.8358 112.166 73.6198 112.406C73.4038 112.646 73.1398 112.838 72.8278 112.982C72.5278 113.114 72.1798 113.18 71.7838 113.18C71.3998 113.18 71.0518 113.108 70.7398 112.964C70.4398 112.82 70.1758 112.628 69.9478 112.388C69.7198 112.136 69.5458 111.854 69.4258 111.542C69.3058 111.218 69.2458 110.876 69.2458 110.516V110.48C69.2458 110.12 69.2998 109.784 69.4078 109.472C69.5278 109.148 69.6958 108.866 69.9118 108.626C70.1278 108.386 70.3858 108.2 70.6858 108.068C70.9978 107.924 71.3518 107.852 71.7478 107.852C72.1198 107.852 72.4618 107.924 72.7738 108.068C73.0858 108.212 73.3558 108.41 73.5838 108.662C73.8118 108.902 73.9858 109.184 74.1058 109.508C74.2258 109.82 74.2858 110.156 74.2858 110.516V110.552ZM80.9289 115.322V102.182H78.1929V115.322H80.9289ZM90.8966 115.322V109.724C90.8966 108.416 90.5546 107.396 89.8706 106.664C89.1866 105.932 88.0946 105.566 86.5946 105.566C85.7786 105.566 85.0826 105.638 84.5066 105.782C83.9306 105.926 83.3786 106.112 82.8506 106.34L83.5346 108.428C83.9786 108.26 84.3986 108.134 84.7946 108.05C85.2026 107.954 85.6706 107.906 86.1986 107.906C86.8826 107.906 87.3986 108.056 87.7466 108.356C88.0946 108.656 88.2686 109.094 88.2686 109.67V109.832C87.9206 109.712 87.5606 109.616 87.1886 109.544C86.8286 109.472 86.4026 109.436 85.9106 109.436C85.3346 109.436 84.8066 109.502 84.3266 109.634C83.8586 109.754 83.4506 109.94 83.1026 110.192C82.7666 110.444 82.5026 110.762 82.3106 111.146C82.1186 111.53 82.0226 111.986 82.0226 112.514V112.55C82.0226 113.03 82.1066 113.456 82.2746 113.828C82.4546 114.188 82.6946 114.494 82.9946 114.746C83.2946 114.998 83.6426 115.19 84.0386 115.322C84.4466 115.442 84.8786 115.502 85.3346 115.502C86.0066 115.502 86.5766 115.394 87.0446 115.178C87.5126 114.95 87.9146 114.65 88.2506 114.278V115.322H90.8966ZM88.3046 111.92C88.3046 112.424 88.1066 112.832 87.7106 113.144C87.3266 113.456 86.8106 113.612 86.1626 113.612C85.7186 113.612 85.3586 113.51 85.0826 113.306C84.8066 113.102 84.6686 112.814 84.6686 112.442V112.406C84.6686 111.974 84.8366 111.644 85.1726 111.416C85.5086 111.188 85.9706 111.074 86.5586 111.074C86.8946 111.074 87.2066 111.11 87.4946 111.182C87.7946 111.242 88.0646 111.326 88.3046 111.434V111.92ZM98.1649 108.356V105.494C97.3489 105.458 96.7009 105.638 96.2209 106.034C95.7409 106.43 95.3629 106.958 95.0869 107.618V105.674H92.3509V115.322H95.0869V111.758C95.0869 110.594 95.3449 109.736 95.8609 109.184C96.3889 108.632 97.1089 108.356 98.0209 108.356H98.1649ZM106.048 112.388V112.352C106.048 111.908 105.958 111.53 105.778 111.218C105.598 110.906 105.37 110.642 105.094 110.426C104.818 110.21 104.506 110.03 104.158 109.886C103.81 109.73 103.468 109.598 103.132 109.49C102.868 109.406 102.616 109.322 102.376 109.238C102.148 109.154 101.944 109.07 101.764 108.986C101.584 108.89 101.44 108.794 101.332 108.698C101.224 108.59 101.17 108.47 101.17 108.338V108.302C101.17 108.11 101.254 107.954 101.422 107.834C101.59 107.702 101.842 107.636 102.178 107.636C102.526 107.636 102.928 107.72 103.384 107.888C103.84 108.044 104.308 108.26 104.788 108.536L105.832 106.646C105.304 106.298 104.722 106.028 104.086 105.836C103.462 105.632 102.844 105.53 102.232 105.53C101.74 105.53 101.278 105.596 100.846 105.728C100.426 105.86 100.054 106.058 99.7304 106.322C99.4184 106.586 99.1664 106.91 98.9744 107.294C98.7944 107.666 98.7044 108.098 98.7044 108.59V108.626C98.7044 109.094 98.7884 109.49 98.9564 109.814C99.1364 110.138 99.3644 110.414 99.6404 110.642C99.9164 110.858 100.222 111.038 100.558 111.182C100.906 111.314 101.248 111.428 101.584 111.524C101.848 111.608 102.1 111.686 102.34 111.758C102.58 111.83 102.79 111.908 102.97 111.992C103.162 112.064 103.312 112.154 103.42 112.262C103.528 112.37 103.582 112.496 103.582 112.64V112.676C103.582 112.892 103.486 113.066 103.294 113.198C103.114 113.33 102.826 113.396 102.43 113.396C101.974 113.396 101.482 113.3 100.954 113.108C100.438 112.916 99.9164 112.628 99.3884 112.244L98.2184 114.044C98.8664 114.548 99.5444 114.92 100.252 115.16C100.972 115.388 101.674 115.502 102.358 115.502C102.874 115.502 103.354 115.442 103.798 115.322C104.254 115.19 104.65 114.998 104.986 114.746C105.322 114.494 105.58 114.176 105.76 113.792C105.952 113.396 106.048 112.928 106.048 112.388ZM115.948 115.322V109.076C115.948 107.96 115.66 107.084 115.084 106.448C114.52 105.812 113.716 105.494 112.672 105.494C112.324 105.494 112.012 105.536 111.736 105.62C111.46 105.704 111.208 105.818 110.98 105.962C110.752 106.106 110.542 106.274 110.35 106.466C110.17 106.646 110.002 106.838 109.846 107.042V102.182H107.11V115.322H109.846V109.94C109.846 109.292 109.996 108.806 110.296 108.482C110.608 108.146 111.028 107.978 111.556 107.978C112.084 107.978 112.492 108.146 112.78 108.482C113.068 108.806 113.212 109.292 113.212 109.94V115.322H115.948ZM120.358 104.612V102.182H117.478V104.612H120.358ZM120.286 115.322V105.674H117.55V115.322H120.286ZM132.09 110.516V110.48C132.09 109.676 131.964 108.968 131.712 108.356C131.472 107.732 131.148 107.21 130.74 106.79C130.332 106.358 129.864 106.034 129.336 105.818C128.808 105.602 128.262 105.494 127.698 105.494C126.978 105.494 126.378 105.644 125.898 105.944C125.43 106.232 125.028 106.604 124.692 107.06V105.674H121.956V118.202H124.692V114.062C125.016 114.446 125.412 114.782 125.88 115.07C126.36 115.358 126.966 115.502 127.698 115.502C128.274 115.502 128.826 115.394 129.354 115.178C129.882 114.962 130.344 114.644 130.74 114.224C131.148 113.792 131.472 113.27 131.712 112.658C131.964 112.034 132.09 111.32 132.09 110.516ZM129.354 110.516C129.354 110.924 129.288 111.29 129.156 111.614C129.036 111.938 128.868 112.22 128.652 112.46C128.436 112.688 128.184 112.868 127.896 113C127.62 113.12 127.32 113.18 126.996 113.18C126.672 113.18 126.366 113.12 126.078 113C125.802 112.868 125.556 112.688 125.34 112.46C125.136 112.22 124.968 111.938 124.836 111.614C124.716 111.278 124.656 110.912 124.656 110.516V110.48C124.656 110.084 124.716 109.724 124.836 109.4C124.968 109.064 125.136 108.782 125.34 108.554C125.556 108.314 125.802 108.134 126.078 108.014C126.366 107.882 126.672 107.816 126.996 107.816C127.32 107.816 127.62 107.882 127.896 108.014C128.184 108.134 128.436 108.314 128.652 108.554C128.868 108.782 129.036 109.064 129.156 109.4C129.288 109.724 129.354 110.084 129.354 110.48V110.516ZM58.8994 124.114V124.078C58.8994 123.43 58.7854 122.842 58.5574 122.314C58.3414 121.774 58.0234 121.312 57.6034 120.928C57.1954 120.544 56.6914 120.25 56.0914 120.046C55.5034 119.83 54.8314 119.722 54.0754 119.722H48.9274V132.322H51.6994V128.542H53.8054C54.5134 128.542 55.1734 128.452 55.7854 128.272C56.4094 128.08 56.9494 127.798 57.4054 127.426C57.8734 127.054 58.2394 126.592 58.5034 126.04C58.7674 125.488 58.8994 124.846 58.8994 124.114ZM56.0914 124.168C56.0914 124.708 55.8994 125.164 55.5154 125.536C55.1314 125.896 54.5914 126.076 53.8954 126.076H51.6994V122.224H53.8414C54.5374 122.224 55.0834 122.386 55.4794 122.71C55.8874 123.034 56.0914 123.508 56.0914 124.132V124.168ZM65.5768 125.356V122.494C64.7608 122.458 64.1128 122.638 63.6328 123.034C63.1528 123.43 62.7748 123.958 62.4988 124.618V122.674H59.7628V132.322H62.4988V128.758C62.4988 127.594 62.7568 126.736 63.2728 126.184C63.8008 125.632 64.5208 125.356 65.4328 125.356H65.5768ZM76.3583 127.516V127.48C76.3583 126.784 76.2263 126.136 75.9623 125.536C75.6983 124.924 75.3323 124.396 74.8643 123.952C74.4083 123.496 73.8623 123.142 73.2263 122.89C72.5903 122.626 71.9003 122.494 71.1563 122.494C70.4003 122.494 69.7043 122.626 69.0683 122.89C68.4323 123.154 67.8803 123.514 67.4123 123.97C66.9443 124.426 66.5783 124.96 66.3143 125.572C66.0503 126.172 65.9183 126.82 65.9183 127.516V127.552C65.9183 128.248 66.0503 128.902 66.3143 129.514C66.5783 130.114 66.9383 130.642 67.3943 131.098C67.8623 131.542 68.4143 131.896 69.0503 132.16C69.6863 132.412 70.3763 132.538 71.1203 132.538C71.8763 132.538 72.5723 132.406 73.2083 132.142C73.8443 131.878 74.3963 131.518 74.8643 131.062C75.3323 130.606 75.6983 130.078 75.9623 129.478C76.2263 128.866 76.3583 128.212 76.3583 127.516ZM73.6583 127.552C73.6583 127.912 73.5983 128.254 73.4783 128.578C73.3703 128.89 73.2083 129.166 72.9923 129.406C72.7763 129.646 72.5123 129.838 72.2003 129.982C71.9003 130.114 71.5523 130.18 71.1563 130.18C70.7723 130.18 70.4243 130.108 70.1123 129.964C69.8123 129.82 69.5483 129.628 69.3203 129.388C69.0923 129.136 68.9183 128.854 68.7983 128.542C68.6783 128.218 68.6183 127.876 68.6183 127.516V127.48C68.6183 127.12 68.6723 126.784 68.7803 126.472C68.9003 126.148 69.0683 125.866 69.2843 125.626C69.5003 125.386 69.7583 125.2 70.0583 125.068C70.3703 124.924 70.7243 124.852 71.1203 124.852C71.4923 124.852 71.8343 124.924 72.1463 125.068C72.4583 125.212 72.7283 125.41 72.9563 125.662C73.1843 125.902 73.3583 126.184 73.4783 126.508C73.5983 126.82 73.6583 127.156 73.6583 127.516V127.552ZM87.1414 130.144V122.674H84.4054V123.934C84.0334 123.526 83.6074 123.184 83.1274 122.908C82.6474 122.632 82.0354 122.494 81.2914 122.494C80.7394 122.494 80.2054 122.596 79.6894 122.8C79.1734 122.992 78.7174 123.28 78.3214 123.664C77.9254 124.048 77.6074 124.522 77.3674 125.086C77.1274 125.638 77.0074 126.274 77.0074 126.994V127.03C77.0074 127.75 77.1214 128.392 77.3494 128.956C77.5894 129.508 77.9074 129.976 78.3034 130.36C78.6994 130.744 79.1554 131.038 79.6714 131.242C80.1874 131.434 80.7274 131.53 81.2914 131.53C82.0234 131.53 82.6294 131.392 83.1094 131.116C83.5894 130.84 84.0334 130.456 84.4414 129.964V130.432C84.4414 131.296 84.2134 131.95 83.7574 132.394C83.3134 132.838 82.6234 133.06 81.6874 133.06C81.0394 133.06 80.4574 132.982 79.9414 132.826C79.4374 132.67 78.9334 132.454 78.4294 132.178L77.4934 134.23C78.1054 134.554 78.7714 134.8 79.4914 134.968C80.2114 135.148 80.9674 135.238 81.7594 135.238C82.6594 135.238 83.4454 135.142 84.1174 134.95C84.7894 134.758 85.3474 134.458 85.7914 134.05C86.2474 133.642 86.5834 133.114 86.7994 132.466C87.0274 131.83 87.1414 131.056 87.1414 130.144ZM84.4414 127.03C84.4414 127.354 84.3814 127.654 84.2614 127.93C84.1414 128.206 83.9734 128.446 83.7574 128.65C83.5534 128.842 83.3074 128.992 83.0194 129.1C82.7314 129.208 82.4194 129.262 82.0834 129.262C81.4114 129.262 80.8534 129.058 80.4094 128.65C79.9654 128.242 79.7434 127.702 79.7434 127.03V126.994C79.7434 126.67 79.8034 126.37 79.9234 126.094C80.0434 125.818 80.2054 125.584 80.4094 125.392C80.6254 125.188 80.8714 125.032 81.1474 124.924C81.4354 124.816 81.7474 124.762 82.0834 124.762C82.4194 124.762 82.7314 124.816 83.0194 124.924C83.3074 125.032 83.5534 125.188 83.7574 125.392C83.9734 125.584 84.1414 125.818 84.2614 126.094C84.3814 126.37 84.4414 126.67 84.4414 126.994V127.03ZM94.4999 125.356V122.494C93.6839 122.458 93.0359 122.638 92.5559 123.034C92.0759 123.43 91.6979 123.958 91.4219 124.618V122.674H88.6859V132.322H91.4219V128.758C91.4219 127.594 91.6799 126.736 92.1959 126.184C92.7239 125.632 93.4439 125.356 94.3559 125.356H94.4999ZM103.607 132.322V126.724C103.607 125.416 103.265 124.396 102.581 123.664C101.897 122.932 100.805 122.566 99.3053 122.566C98.4893 122.566 97.7933 122.638 97.2173 122.782C96.6413 122.926 96.0893 123.112 95.5613 123.34L96.2453 125.428C96.6893 125.26 97.1093 125.134 97.5053 125.05C97.9133 124.954 98.3813 124.906 98.9093 124.906C99.5933 124.906 100.109 125.056 100.457 125.356C100.805 125.656 100.979 126.094 100.979 126.67V126.832C100.631 126.712 100.271 126.616 99.8993 126.544C99.5393 126.472 99.1133 126.436 98.6213 126.436C98.0453 126.436 97.5173 126.502 97.0373 126.634C96.5693 126.754 96.1613 126.94 95.8133 127.192C95.4773 127.444 95.2133 127.762 95.0213 128.146C94.8293 128.53 94.7333 128.986 94.7333 129.514V129.55C94.7333 130.03 94.8173 130.456 94.9853 130.828C95.1653 131.188 95.4053 131.494 95.7053 131.746C96.0053 131.998 96.3533 132.19 96.7493 132.322C97.1573 132.442 97.5893 132.502 98.0453 132.502C98.7173 132.502 99.2873 132.394 99.7553 132.178C100.223 131.95 100.625 131.65 100.961 131.278V132.322H103.607ZM101.015 128.92C101.015 129.424 100.817 129.832 100.421 130.144C100.037 130.456 99.5213 130.612 98.8733 130.612C98.4293 130.612 98.0693 130.51 97.7933 130.306C97.5173 130.102 97.3793 129.814 97.3793 129.442V129.406C97.3793 128.974 97.5473 128.644 97.8833 128.416C98.2193 128.188 98.6813 128.074 99.2693 128.074C99.6053 128.074 99.9173 128.11 100.205 128.182C100.505 128.242 100.775 128.326 101.015 128.434V128.92ZM119.786 132.322V126.04C119.786 124.876 119.498 123.994 118.922 123.394C118.346 122.794 117.548 122.494 116.528 122.494C115.868 122.494 115.28 122.626 114.764 122.89C114.248 123.142 113.78 123.52 113.36 124.024C113.108 123.532 112.748 123.154 112.28 122.89C111.824 122.626 111.278 122.494 110.642 122.494C110.294 122.494 109.976 122.536 109.688 122.62C109.412 122.704 109.16 122.818 108.932 122.962C108.704 123.106 108.494 123.274 108.302 123.466C108.122 123.646 107.954 123.838 107.798 124.042V122.674H105.062V132.322H107.798V126.94C107.798 126.292 107.942 125.806 108.23 125.482C108.53 125.146 108.938 124.978 109.454 124.978C109.97 124.978 110.366 125.146 110.642 125.482C110.918 125.806 111.056 126.292 111.056 126.94V132.322H113.792V126.94C113.792 126.292 113.936 125.806 114.224 125.482C114.524 125.146 114.932 124.978 115.448 124.978C115.964 124.978 116.36 125.146 116.636 125.482C116.912 125.806 117.05 126.292 117.05 126.94V132.322H119.786Z" fill="black"/>
</svg>
