<svg width="139" height="82" viewBox="0 0 139 82" fill="none" xmlns="http://www.w3.org/2000/svg">
<g clip-path="url(#clip0)">
<path d="M76.8357 30.72C79.7637 31.584 82.0197 33.096 83.6037 35.256C85.2357 37.368 86.0517 39.984 86.0517 43.104C86.0517 47.376 84.4677 50.76 81.2997 53.256C78.1797 55.752 73.8597 57 68.3397 57H49.4757C47.7957 57 46.4997 56.544 45.5877 55.632C44.6757 54.72 44.2197 53.424 44.2197 51.744V11.496C44.2197 9.816 44.6757 8.52 45.5877 7.608C46.4997 6.696 47.7957 6.24 49.4757 6.24H67.6197C72.8997 6.24 77.0757 7.416 80.1477 9.768C83.2677 12.12 84.8277 15.336 84.8277 19.416C84.8277 22.056 84.1077 24.384 82.6677 26.4C81.2757 28.368 79.3317 29.808 76.8357 30.72ZM55.1637 26.904H65.7477C68.6277 26.904 70.7397 26.424 72.0837 25.464C73.4757 24.456 74.1717 22.944 74.1717 20.928C74.1717 18.816 73.4757 17.28 72.0837 16.32C70.7397 15.312 68.6277 14.808 65.7477 14.808H55.1637V26.904ZM67.0437 48.432C70.0197 48.432 72.1797 47.928 73.5237 46.92C74.8677 45.912 75.5397 44.28 75.5397 42.024C75.5397 39.768 74.8677 38.112 73.5237 37.056C72.1797 36 70.0197 35.472 67.0437 35.472H55.1637V48.432H67.0437Z" fill="#4F98CA"/>
<rect x="23" y="73" width="10" height="82" rx="5" transform="rotate(-90 23 73)" fill="#50D890"/>
</g>
<defs>
<clipPath id="clip0">
<rect width="139" height="82" fill="white"/>
</clipPath>
</defs>
</svg>
